<?xml version="1.0" encoding="UTF-8"?>
<svg version="1.1" xmlns="http://www.w3.org/2000/svg" width="512" height="512">
<path d="M0 0 C6.9797178 6.33074973 9.91247824 13.28371183 11.54980469 22.44824219 C11.67864548 23.15645615 11.80748627 23.8646701 11.94023132 24.59434509 C12.35922743 26.91042975 12.76593957 29.22846853 13.171875 31.546875 C13.46091864 33.16645572 13.75049826 34.78594087 14.04058838 36.40533447 C14.64433904 39.78669577 15.24207727 43.16904852 15.83544922 46.55224609 C16.5968332 50.89091977 17.37253015 55.22688846 18.15259933 59.56223679 C18.75169482 62.90007151 19.34362041 66.23914628 19.93332672 69.57865143 C20.21668118 71.17864027 20.50218871 72.77824935 20.78987885 74.37746429 C21.18975743 76.60688458 21.58004855 78.83777448 21.96777344 81.06933594 C22.19188904 82.33839783 22.41600464 83.60745972 22.64691162 84.91497803 C23 88 23 88 22 91 C-14.09041485 97.37791773 -50.18091449 103.75535545 -86.2715149 110.13222308 C-90.61680151 110.8999945 -94.96208748 111.66776955 -99.30737305 112.43554688 C-100.17176867 112.58827863 -101.0361643 112.74101038 -101.92675374 112.89837037 C-113.91480197 115.01656975 -125.90281611 117.13496202 -137.89080109 119.25351939 C-158.64976911 122.9221144 -179.4088091 126.59030198 -200.16796875 130.2578125 C-200.9856327 130.40226968 -201.80329666 130.54672686 -202.6457383 130.69556153 C-269.42526244 142.493453 -336.21075068 154.25729323 -403 166 C-401.67353055 166.00146521 -401.67353055 166.00146521 -400.32026374 166.00296003 C-347.9374851 166.06120071 -295.55474802 166.13497369 -243.17202073 166.22898628 C-236.88583954 166.24025478 -230.59965812 166.25139318 -224.31347656 166.26245117 C-223.06198284 166.26465486 -221.81048911 166.26685854 -220.52107133 166.269129 C-200.24287097 166.30452528 -179.96467065 166.32937625 -159.68645082 166.35034702 C-138.88738883 166.37209051 -118.08836702 166.40512709 -97.28933918 166.44870156 C-84.44972115 166.47524329 -71.6101532 166.49292009 -58.77050908 166.49934604 C-49.97226235 166.5045922 -41.1740787 166.52078318 -32.37586574 166.54566566 C-27.29572319 166.5597071 -22.21569365 166.56884161 -17.13553047 166.56500816 C-12.48685712 166.56160659 -7.83842542 166.5719127 -3.18980159 166.59323552 C-1.50599959 166.59851886 0.1778274 166.59872219 1.86162926 166.59339563 C4.14738734 166.58690007 6.43234353 166.59876113 8.71803474 166.61523914 C9.98857897 166.61713775 11.25912319 166.61903635 12.56816876 166.62099248 C17.98315602 167.21901748 21.88570102 169.28808535 25.3125 173.5 C25.80363281 174.0878125 26.29476563 174.675625 26.80078125 175.28125 C28.96940016 178.38936831 29.12706825 181.12547012 29.13701439 184.79216099 C29.1446262 186.28102183 29.1446262 186.28102183 29.15239179 187.79996067 C29.15288955 188.89332122 29.15338731 189.98668176 29.15390015 191.11317444 C29.1582824 192.27249448 29.16266465 193.43181452 29.1671797 194.62626547 C29.17824857 197.84963405 29.18479349 201.07297523 29.18936086 204.29635847 C29.19531735 207.77097707 29.2069272 211.24557779 29.21765137 214.72018433 C29.24217611 223.11504338 29.25680357 231.50990836 29.26971143 239.90479222 C29.27342362 242.27628606 29.27739684 244.64777931 29.2814641 247.01927257 C29.30670323 261.74831894 29.32875474 276.47736625 29.34119225 291.20642948 C29.34412191 294.61833258 29.34708358 298.03023565 29.35009766 301.44213867 C29.35084371 302.29014427 29.35158976 303.13814987 29.35235842 304.01185261 C29.36500678 317.7431051 29.39822259 331.47422794 29.43989949 345.20541985 C29.48234588 359.30585871 29.50589049 373.40623126 29.51111281 387.50673383 C29.5145241 395.42243011 29.52624565 403.33792387 29.55921555 411.25355721 C29.5872546 417.99640699 29.59819863 424.73901276 29.58702008 431.48191632 C29.58184296 434.92024851 29.5846572 438.35807001 29.60948563 441.79632759 C29.63216448 445.53062316 29.6238858 449.26363767 29.60800171 452.99794006 C29.6218838 454.07568555 29.63576588 455.15343104 29.65006864 456.26383549 C29.56510511 464.38755876 27.64416589 471.10564876 21.99187696 477.14598805 C14.76010744 483.86100632 7.98250982 486.12125852 -1.77178478 486.13142776 C-2.44315402 486.1334804 -3.11452325 486.13553303 -3.80623701 486.13764787 C-6.06006738 486.14331063 -8.3138365 486.14186151 -10.56767273 486.14044189 C-12.19828274 486.14302594 -13.82889211 486.14603922 -15.45950061 486.1494453 C-19.94392413 486.15751385 -24.42833165 486.15930479 -28.91276157 486.16004276 C-33.74795198 486.16189357 -38.58313409 486.16944104 -43.4183197 486.17617798 C-53.99273685 486.18976076 -64.5671502 486.19578592 -75.14157462 486.20018864 C-81.7440758 486.20295113 -88.34657551 486.20718849 -94.9490757 486.21169281 C-113.22888313 486.22388536 -131.50868938 486.23418473 -149.78850079 486.2375679 C-151.54347503 486.23789725 -151.54347503 486.23789725 -153.3339033 486.23823325 C-154.50668761 486.23845153 -155.67947192 486.23866981 -156.88779515 486.2388947 C-159.2643081 486.23933817 -161.64082104 486.23978473 -164.01733398 486.24023438 C-165.19616682 486.2404558 -166.37499966 486.24067723 -167.5895547 486.24090537 C-186.69108448 486.24485343 -205.79257611 486.26230777 -224.89409115 486.2855939 C-244.50453445 486.30930752 -264.11495861 486.32176976 -283.72541648 486.32293582 C-294.73627888 486.32385257 -305.74709158 486.32960487 -316.75794029 486.34775543 C-326.13390831 486.36315653 -335.50981127 486.3682768 -344.88578954 486.36001733 C-349.66876653 486.35611089 -354.45161249 486.35704018 -359.23457336 486.37107468 C-363.61615839 486.38381375 -367.99751392 486.38261599 -372.37909863 486.37048396 C-373.96121842 486.36852699 -375.54335446 486.37160544 -377.12545141 486.38032833 C-389.31669415 486.44327012 -399.80594111 485.76404723 -409 477 C-415.66347279 469.47180173 -416.28751731 462.14075199 -416.19772339 452.38485718 C-416.195049 451.20672695 -416.19237461 450.02859672 -416.18961918 448.81476557 C-416.1804515 445.55044964 -416.16237434 442.28632027 -416.14076567 439.02206755 C-416.11974232 435.49530233 -416.1105723 431.96850664 -416.10044861 428.44169617 C-416.0841997 423.11246852 -416.06439426 417.78327433 -416.04049559 412.45407547 C-415.99347547 401.90335223 -415.97409687 391.35272796 -415.96463013 380.8019104 C-415.9630071 379.13253446 -415.96137528 377.46315852 -415.9597348 375.79378259 C-415.95647117 372.4116784 -415.95332652 369.02957411 -415.95022416 365.64746976 C-415.9420613 356.94368754 -415.93188828 348.23990928 -415.91894531 339.53613281 C-415.9176572 338.66316911 -415.91636909 337.79020542 -415.91504194 336.89078827 C-415.89327257 322.9142651 -415.83507239 308.93810986 -415.76424287 294.96176009 C-415.69205399 280.5060437 -415.66804815 266.05073748 -415.68324578 251.59484923 C-415.69033349 243.52267152 -415.67739256 235.45174037 -415.60717392 227.37983322 C-415.29541699 190.27888943 -417.48355488 155.11027375 -424.79844475 118.66322899 C-424.93573138 117.97584646 -425.07301801 117.28846393 -425.21446484 116.58025163 C-425.85543315 113.38351202 -426.51365534 110.19347302 -427.20430112 107.00691247 C-429.78211151 94.64624093 -430.79214999 83.94163154 -423.75 73.0703125 C-417.22998754 64.4387051 -407.03219738 62.1775719 -396.87890625 60.4765625 C-395.04764191 60.14997398 -395.04764191 60.14997398 -393.17938232 59.81678772 C-390.45371187 59.33107274 -387.7264971 58.85567867 -384.99771118 58.38778687 C-380.35466298 57.59158238 -375.71576408 56.77259257 -371.0769043 55.95239258 C-363.8245126 54.67275784 -356.57007838 53.4052062 -349.31445312 52.14404297 C-336.02427955 49.83348773 -322.73865752 47.49722556 -309.453125 45.16015625 C-294.30726147 42.49621373 -279.16105306 39.83437388 -264.01242816 37.18618071 C-257.54067958 36.05471064 -251.06911891 34.9221667 -244.59765625 33.7890625 C-243.86235255 33.6603173 -243.12704884 33.53157211 -242.36946321 33.39892554 C-217.29657951 29.00790616 -192.23548656 24.55234794 -167.17829317 20.07272094 C-159.90916823 18.77333017 -152.63963464 17.47624636 -145.36982727 16.18067932 C-144.34389302 15.99783553 -143.31795877 15.81499175 -142.2609356 15.62660724 C-138.12068404 14.8887717 -133.98041968 14.15100821 -129.84010708 13.41351521 C-117.55282211 11.22477964 -105.2669882 9.02827244 -92.98339683 6.81889868 C-85.21855762 5.42298358 -77.45206647 4.03652076 -69.68428296 2.65708494 C-65.16110719 1.85348591 -60.63881613 1.04554987 -56.11848259 0.22610092 C-51.93510423 -0.53220348 -47.74972427 -1.27827681 -43.56253755 -2.01525247 C-42.0505449 -2.2835372 -40.53930831 -2.55613043 -39.02899325 -2.83370364 C-10.69070612 -8.03258137 -10.69070612 -8.03258137 0 0 Z " fill="#4A5057" transform="translate(458,18)"/>
<path d="M0 0 C6.9797178 6.33074973 9.91247824 13.28371183 11.54980469 22.44824219 C11.67864548 23.15645615 11.80748627 23.8646701 11.94023132 24.59434509 C12.35922743 26.91042975 12.76593957 29.22846853 13.171875 31.546875 C13.46091864 33.16645572 13.75049826 34.78594087 14.04058838 36.40533447 C14.64433904 39.78669577 15.24207727 43.16904852 15.83544922 46.55224609 C16.5968332 50.89091977 17.37253015 55.22688846 18.15259933 59.56223679 C18.75169482 62.90007151 19.34362041 66.23914628 19.93332672 69.57865143 C20.21668118 71.17864027 20.50218871 72.77824935 20.78987885 74.37746429 C21.18975743 76.60688458 21.58004855 78.83777448 21.96777344 81.06933594 C22.19188904 82.33839783 22.41600464 83.60745972 22.64691162 84.91497803 C23 88 23 88 22 91 C-14.09041485 97.37791773 -50.18091449 103.75535545 -86.2715149 110.13222308 C-90.61680151 110.8999945 -94.96208748 111.66776955 -99.30737305 112.43554688 C-100.17176867 112.58827863 -101.0361643 112.74101038 -101.92675374 112.89837037 C-113.91480197 115.01656975 -125.90281611 117.13496202 -137.89080109 119.25351939 C-158.64976911 122.9221144 -179.4088091 126.59030198 -200.16796875 130.2578125 C-200.9856327 130.40226968 -201.80329666 130.54672686 -202.6457383 130.69556153 C-269.42526485 142.49345343 -336.21099215 154.25590764 -403 166 C-368.35 166.33 -333.7 166.66 -298 167 C-305.95451154 181.58327115 -313.99793278 196.07252318 -322.39990234 210.40209961 C-325.64078575 215.93596241 -328.85792873 221.48188017 -332.03125 227.0546875 C-332.37264008 227.65401093 -332.71403015 228.25333435 -333.06576538 228.87081909 C-334.70312066 231.74703449 -336.33722617 234.62500978 -337.96728516 237.50537109 C-339.23053415 239.727957 -340.52828633 241.93119996 -341.85546875 244.11621094 C-343.59064336 247.07294055 -344.84138969 250.07277625 -346.08203125 253.26660156 C-348.52064774 258.97816943 -350.95878834 264.17249242 -356 268 C-365.10917042 271.04487319 -375.18089934 269.98415249 -384.63769531 269.37329102 C-388.17533283 269.16680616 -391.71585871 269.07697668 -395.2578125 268.9765625 C-402.17893732 268.76349867 -409.08862997 268.42335669 -416 268 C-415.98588074 266.86060974 -415.97176147 265.72121948 -415.95721436 264.54730225 C-415.78699099 249.9482818 -415.72904331 235.34997575 -415.75 220.75 C-415.75160503 219.5829377 -415.75321007 218.4158754 -415.75486374 217.21344757 C-415.84378768 179.29779999 -418.43537837 143.14201325 -427.19612122 106.21011353 C-429.41841335 96.53537342 -431.05777089 86.1069198 -426.25 76.9921875 C-421.28259246 69.07538174 -415.3237604 64.77894213 -406.22390747 62.21905518 C-403.11848425 61.558084 -400.0102761 61.00116969 -396.87890625 60.4765625 C-395.04764191 60.14997398 -395.04764191 60.14997398 -393.17938232 59.81678772 C-390.45371187 59.33107274 -387.7264971 58.85567867 -384.99771118 58.38778687 C-380.35466298 57.59158238 -375.71576408 56.77259257 -371.0769043 55.95239258 C-363.8245126 54.67275784 -356.57007838 53.4052062 -349.31445312 52.14404297 C-336.02427955 49.83348773 -322.73865752 47.49722556 -309.453125 45.16015625 C-294.30726147 42.49621373 -279.16105306 39.83437388 -264.01242816 37.18618071 C-257.54067958 36.05471064 -251.06911891 34.9221667 -244.59765625 33.7890625 C-243.86235255 33.6603173 -243.12704884 33.53157211 -242.36946321 33.39892554 C-217.29657951 29.00790616 -192.23548656 24.55234794 -167.17829317 20.07272094 C-159.90916823 18.77333017 -152.63963464 17.47624636 -145.36982727 16.18067932 C-144.34389302 15.99783553 -143.31795877 15.81499175 -142.2609356 15.62660724 C-138.12068404 14.8887717 -133.98041968 14.15100821 -129.84010708 13.41351521 C-117.55282211 11.22477964 -105.2669882 9.02827244 -92.98339683 6.81889868 C-85.21855762 5.42298358 -77.45206647 4.03652076 -69.68428296 2.65708494 C-65.16110719 1.85348591 -60.63881613 1.04554987 -56.11848259 0.22610092 C-51.93510423 -0.53220348 -47.74972427 -1.27827681 -43.56253755 -2.01525247 C-42.0505449 -2.2835372 -40.53930831 -2.55613043 -39.02899325 -2.83370364 C-10.69070612 -8.03258137 -10.69070612 -8.03258137 0 0 Z " fill="#4B5159" transform="translate(458,18)"/>
<path d="M0 0 C7.92 0 15.84 0 24 0 C25.815 3.42375 27.63 6.8475 29.5 10.375 C45.75257818 40.58648796 64.93205783 68.74480726 87 95 C87.64606201 95.7734375 87.64606201 95.7734375 88.30517578 96.5625 C103.22628033 114.3900402 119.20650859 131.99267806 137 147 C138.10835292 147.96954855 139.21494167 148.94111547 140.3203125 149.9140625 C169.46186665 175.5146256 202.04389584 199.03905005 237 216 C237 216.66 237 217.32 237 218 C209.531359 218.07011544 182.06273144 218.12300065 154.59401894 218.15543652 C141.83950431 218.17089809 129.08504532 218.19197413 116.33056641 218.22631836 C105.21233437 218.25624234 94.09414263 218.27558016 82.97587144 218.28226548 C77.09014227 218.28617263 71.20452839 218.29534039 65.31883621 218.31719017 C59.77524228 218.33760258 54.23181078 218.34382414 48.68818283 218.33932304 C46.65732693 218.34014611 44.62646541 218.34608329 42.59564209 218.35761642 C16.96193582 218.49601009 16.96193582 218.49601009 7 209 C1.355226 202.62269807 -0.30683393 196.32101012 -0.24050903 187.83755493 C-0.24221788 187.03205212 -0.24392673 186.22654931 -0.24568737 185.39663732 C-0.24897286 182.70655347 -0.23799411 180.0167209 -0.22705078 177.32666016 C-0.22648646 175.39476528 -0.22680363 173.46286997 -0.22793579 171.53097534 C-0.2285095 166.29179068 -0.21675213 161.05269764 -0.20278788 155.81353426 C-0.19028365 150.33625535 -0.18911026 144.85897433 -0.18673706 139.38168335 C-0.1805214 129.01206769 -0.16410937 118.64249421 -0.14403808 108.27289712 C-0.1216818 96.46645889 -0.11068633 84.66001864 -0.10064721 72.8535645 C-0.07974325 48.56901882 -0.04416258 24.28451355 0 0 Z " fill="#3F4449" transform="translate(42,286)"/>
<path d="M0 0 C2.04665878 1.87482536 3.53612527 3.50847436 5.1875 5.6875 C6.14661397 6.88713583 7.1062647 8.08634269 8.06640625 9.28515625 C8.55125488 9.90277832 9.03610352 10.52040039 9.53564453 11.15673828 C11.82697469 14.04095681 14.22902261 16.82772591 16.625 19.625 C19.93833504 23.52892248 23.20823372 27.463466 26.4375 31.4375 C30.39508188 36.30129025 34.46542446 41.05881231 38.55834961 45.80834961 C42.33334391 50.1980035 46.00728461 54.66114771 49.65625 59.15625 C52.39302383 62.47686891 55.19115891 65.74035181 58 69 C71.28470919 84.42706379 71.28470919 84.42706379 75 90 C41.34 95.94 7.68 101.88 -27 108 C7.65 108.33 42.3 108.66 78 109 C70.04548846 123.58327115 62.00206722 138.07252318 53.60009766 152.40209961 C50.35921425 157.93596241 47.14207127 163.48188017 43.96875 169.0546875 C43.62735992 169.65401093 43.28596985 170.25333435 42.93423462 170.87081909 C41.29687934 173.74703449 39.66277383 176.62500978 38.03271484 179.50537109 C36.76946585 181.727957 35.47171367 183.93119996 34.14453125 186.11621094 C32.40935664 189.07294055 31.15861031 192.07277625 29.91796875 195.26660156 C27.47935226 200.97816943 25.04121166 206.17249242 20 210 C10.89082958 213.04487319 0.81910066 211.98415249 -8.63769531 211.37329102 C-12.17533283 211.16680616 -15.71585871 211.07697668 -19.2578125 210.9765625 C-26.17893732 210.76349867 -33.08862997 210.42335669 -40 210 C-39.98588074 208.86060974 -39.97176147 207.72121948 -39.95721436 206.54730225 C-39.78699099 191.9482818 -39.72904331 177.34997575 -39.75 162.75 C-39.75160503 161.5829377 -39.75321007 160.4158754 -39.75486374 159.21344757 C-39.84378768 121.29779999 -42.43537837 85.14201325 -51.19612122 48.21011353 C-53.41841335 38.53537342 -55.05777089 28.1069198 -50.25 18.9921875 C-45.16663092 10.89056803 -39.08884961 6.6291267 -29.75341797 4.13134766 C-26.26171545 3.40413777 -22.76780343 2.77508491 -19.25 2.1875 C-18.05761719 1.97158203 -16.86523438 1.75566406 -15.63671875 1.53320312 C-4.86821722 -0.36181251 -4.86821722 -0.36181251 0 0 Z " fill="#F6F4FA" transform="translate(82,76)"/>
<path d="M0 0 C2.10007206 2.08247369 3.90947609 4.0844439 5.75 6.375 C6.27585693 7.00913818 6.80171387 7.64327637 7.34350586 8.29663086 C8.90779536 10.18819151 10.45538207 12.09236362 12 14 C12.79019531 14.96292969 13.58039063 15.92585938 14.39453125 16.91796875 C15.84367754 18.68566611 17.28897652 20.45652426 18.73046875 22.23046875 C23.08505794 27.54441666 27.55078435 32.76526766 32 38 C37.19219022 44.10888035 42.38123581 50.21510641 47.4375 56.4375 C50.89275828 60.68394443 54.42745987 64.85252964 58 69 C61.77755406 73.39400272 65.54263563 77.7964994 69.25 82.25 C69.97703125 83.12140625 70.7040625 83.9928125 71.453125 84.890625 C73 87 73 87 73 89 C63.4245506 91.3203541 53.80067833 93.20648642 44.1015625 94.91796875 C42.61231375 95.18260328 41.12308688 95.447361 39.63388062 95.7122345 C36.5400244 96.26160776 33.44570999 96.80830745 30.35107422 97.35327148 C26.39942746 98.0495559 22.44937722 98.75449074 18.49965858 99.46161938 C15.43594647 100.00881085 12.37127891 100.55049219 9.30631638 101.09063148 C7.84922925 101.3482688 6.39247668 101.60780621 4.93608475 101.86934471 C2.90187783 102.23399177 0.86645584 102.59092903 -1.16943359 102.94604492 C-2.89932022 103.25224007 -2.89932022 103.25224007 -4.66415405 103.56462097 C-8.17850521 104.02329767 -11.46073727 104.21030566 -15 104 C-17.5546875 101.98046875 -17.5546875 101.98046875 -19.875 99.1875 C-20.29861816 98.68903564 -20.72223633 98.19057129 -21.15869141 97.67700195 C-22.46071649 96.13451715 -23.73226096 94.5707207 -25 93 C-25.7321875 92.113125 -26.464375 91.22625 -27.21875 90.3125 C-28.68212859 88.53099563 -30.13761715 86.74298654 -31.5859375 84.94921875 C-34.33861873 81.5863153 -37.16181769 78.29070431 -40 75 C-44.29995131 70.01078981 -48.50486032 64.95778077 -52.65625 59.84375 C-55.39302049 56.52313514 -58.1910295 53.25953218 -61 50 C-65.29137885 45.02027968 -69.49154661 39.98016354 -73.62890625 34.87109375 C-75.44572497 32.67115675 -77.28340225 30.50266593 -79.15234375 28.34765625 C-79.69632813 27.71988281 -80.2403125 27.09210938 -80.80078125 26.4453125 C-81.86869709 25.21682698 -82.94015761 23.99141128 -84.015625 22.76953125 C-86.4555679 19.96263123 -88.43068376 17.36437784 -90 14 C-79.00564479 12.01620907 -68.00956985 10.04227626 -57.01118946 8.0809164 C-51.90427965 7.16987296 -46.79802493 6.25544236 -41.69311523 5.33325195 C-36.76676929 4.44344751 -31.83890393 3.56256568 -26.9098568 2.68785286 C-25.02942712 2.3525338 -23.14956756 2.01400125 -21.27030373 1.67220879 C-18.63842581 1.19410011 -16.00475426 0.72744794 -13.37036133 0.26342773 C-12.59352493 0.11957138 -11.81668854 -0.02428497 -11.01631165 -0.17250061 C-7.09492075 -0.85045823 -3.80262423 -1.32954722 0 0 Z " fill="#4B5159" transform="translate(171,61)"/>
<path d="M0 0 C0.60199219 0.91265625 1.20398438 1.8253125 1.82421875 2.765625 C2.99210937 4.00699219 2.99210937 4.00699219 4.18359375 5.2734375 C9.12513292 10.68329247 13.87895877 16.19253533 18.484375 21.890625 C21.01974502 25.00587097 23.60065609 28.07811491 26.19921875 31.140625 C26.65917236 31.68299805 27.11912598 32.22537109 27.59301758 32.78417969 C29.00269424 34.44527772 30.41328805 36.10559206 31.82421875 37.765625 C37.01640897 43.87450535 42.20545456 49.98073141 47.26171875 56.203125 C50.71697703 60.44956943 54.25167862 64.61815464 57.82421875 68.765625 C61.60177281 73.15962772 65.36685438 77.5621244 69.07421875 82.015625 C69.80125 82.88703125 70.52828125 83.7584375 71.27734375 84.65625 C72.82421875 86.765625 72.82421875 86.765625 72.82421875 88.765625 C61.81139122 90.72541216 50.79791602 92.68151342 39.78359604 94.63289642 C34.66937075 95.5390923 29.55537828 96.44656192 24.44189453 97.35693359 C19.5081904 98.2352503 14.57390561 99.11023269 9.6391983 99.9828949 C7.75551486 100.31661504 5.87204467 100.65154124 3.98879242 100.98768616 C1.35343226 101.45786475 -1.28264979 101.9237708 -3.91894531 102.38867188 C-4.69937698 102.52893295 -5.47980865 102.66919403 -6.28388977 102.81370544 C-9.65837216 103.40465894 -12.73627981 103.765625 -16.17578125 103.765625 C-17.9296875 102.03515625 -17.9296875 102.03515625 -19.73828125 99.578125 C-22.8886314 95.43599795 -26.11073738 91.40919925 -29.48828125 87.453125 C-30.42970024 86.3450629 -31.37110634 85.23698986 -32.3125 84.12890625 C-33.26689902 83.00778861 -34.22132612 81.88669487 -35.17578125 80.765625 C-40.36934195 74.65796905 -45.55705979 68.550466 -50.61328125 62.328125 C-54.06852276 58.08170118 -57.60275959 53.91266206 -61.17578125 49.765625 C-65.48791075 44.76074047 -69.71535425 39.69942432 -73.875 34.56640625 C-75.5875574 32.48168018 -77.31583651 30.41999508 -79.0703125 28.37109375 C-79.56523193 27.79238525 -80.06015137 27.21367676 -80.57006836 26.61743164 C-81.52995654 25.49801052 -82.49283337 24.38114249 -83.45922852 23.26733398 C-86.04971906 20.24438373 -88.17328473 17.19816602 -90.17578125 13.765625 C-73.18568576 10.3184646 -56.18189728 6.93710195 -39.13272858 3.79375839 C-35.64155156 3.14949879 -32.15330905 2.4937049 -28.66894531 1.81347656 C-25.22097731 1.14071552 -21.76886459 0.49586646 -18.31198883 -0.12945175 C-16.38900314 -0.48455234 -14.47131557 -0.86797184 -12.55389404 -1.25198364 C-3.93769778 -2.77043435 -3.93769778 -2.77043435 0 0 Z " fill="#F6F4FA" transform="translate(260.17578125,46.234375)"/>
<path d="M0 0 C0.83797119 0.00359528 1.67594238 0.00719055 2.53930664 0.01089478 C3.41727402 0.01074875 4.29524139 0.01060272 5.19981384 0.01045227 C8.11630685 0.01115172 11.03273683 0.01894561 13.94921875 0.02676392 C15.96561142 0.02862798 17.98200454 0.03005194 19.99839783 0.03105164 C25.31671388 0.03487772 30.6350028 0.04470878 35.95330811 0.05575562 C41.37576938 0.06596779 46.79823502 0.07054884 52.22070312 0.07559204 C62.86850153 0.08633097 73.51627976 0.10340847 84.1640625 0.12442017 C83.61529449 1.08329132 83.06652649 2.04216248 82.50112915 3.03009033 C81.77368728 4.30192234 81.04626094 5.57376322 80.31884766 6.84561157 C79.77763023 7.79114647 79.77763023 7.79114647 79.22547913 8.75578308 C76.61939328 13.31341249 74.06483426 17.89682658 71.5390625 22.49942017 C67.0751964 30.58149676 62.43698071 38.55570113 57.76806641 46.5206604 C52.44899818 55.60543431 47.22184089 64.74067386 42.02099609 73.89346313 C40.79710168 76.04349616 39.55301543 78.18219285 38.28656006 80.30743408 C36.74829177 82.96197151 35.49646386 85.63302898 34.31393433 88.462677 C29.27214088 99.71034359 29.27214088 99.71034359 24.08207703 102.07165718 C17.96427901 103.52822407 11.73104578 103.07556073 5.5 102.78457642 C3.49657437 102.75282694 1.49301579 102.72864795 -0.5105896 102.71168518 C-5.75855659 102.64708379 -10.99838996 102.48044538 -16.24316406 102.29171753 C-21.60500004 102.11709173 -26.96816517 102.04002206 -32.33203125 101.95449829 C-42.83688784 101.77273751 -53.33573394 101.4830372 -63.8359375 101.12442017 C-62.42310027 97.50802733 -60.84148463 94.22091988 -58.88671875 90.86270142 C-57.99726563 89.32839478 -57.99726563 89.32839478 -57.08984375 87.76309204 C-56.44917969 86.66545532 -55.80851563 85.5678186 -55.1484375 84.43692017 C-54.4736037 83.27501669 -53.79913094 82.11290345 -53.125 80.95059204 C-51.72486661 78.53717977 -50.32318731 76.12467557 -48.92041016 73.71279907 C-45.71102467 68.19174921 -42.52474615 62.65737023 -39.3359375 57.12442017 C-38.09253222 54.96942361 -36.84904225 52.81447591 -35.60546875 50.65957642 C-33.03838753 46.21019209 -30.47356518 41.75951488 -27.91015625 37.30801392 C-22.28617914 27.54430123 -16.66116157 17.78138493 -10.9609375 8.06192017 C-10.54996826 7.35930054 -10.13899902 6.65668091 -9.71557617 5.93276978 C-6.23034463 0.01128933 -6.23034463 0.01128933 0 0 Z " fill="#F6F4FA" transform="translate(255.8359375,184.87557983398438)"/>
<path d="M0 0 C0.82862045 0.00359528 1.65724091 0.00719055 2.51097107 0.01089478 C3.81329178 0.01067574 3.81329178 0.01067574 5.141922 0.01045227 C8.02594967 0.01115171 10.9099136 0.01894554 13.79393005 0.02676392 C15.78790247 0.02862799 17.78187535 0.03005194 19.77584839 0.03105164 C25.03498082 0.03487769 30.29408583 0.04470871 35.5532074 0.05575562 C40.91534555 0.06596786 46.27748811 0.07054885 51.63963318 0.07559204 C62.16894213 0.0863309 72.69823069 0.10340837 83.2275238 0.12442017 C81.69607828 4.95433121 79.66741597 9.06238431 77.0400238 13.37442017 C76.13253975 14.89060932 75.22637575 16.40758905 74.3212738 17.92520142 C73.5787738 19.1677771 73.5787738 19.1677771 72.8212738 20.43545532 C69.8485009 25.45109882 66.94812908 30.50860244 64.0400238 35.56192017 C63.40298523 36.66761353 62.76594666 37.77330688 62.10960388 38.9125061 C60.80051724 41.18466098 59.49168118 43.45696025 58.18309021 45.72940063 C55.03420287 51.19612065 51.88063185 56.66013345 48.7275238 62.12442017 C46.2525238 66.41442017 43.7775238 70.70442017 41.2275238 75.12442017 C36.2775238 83.70442017 31.3275238 92.28442017 26.2275238 101.12442017 C-3.4724762 101.12442017 -33.1724762 101.12442017 -63.7724762 101.12442017 C-62.22707863 97.26092626 -60.66041069 94.00021318 -58.60450745 90.42520142 C-57.96634094 89.31193481 -57.32817444 88.19866821 -56.67066956 87.05166626 C-55.97552086 85.84670334 -55.28028749 84.64178926 -54.5849762 83.43692017 C-53.86279002 82.18007218 -53.1408703 80.92307105 -52.41920471 79.66592407 C-50.56504552 76.43804869 -48.70683666 73.21252667 -46.84706116 69.98788452 C-45.19855436 67.12916812 -43.55215932 64.26923562 -41.9052887 61.40957642 C-39.44330247 57.13708737 -36.97813702 52.86645285 -34.51075745 48.59707642 C-31.94053971 44.14948224 -29.37599892 39.69867857 -26.81544495 35.24551392 C-15.59486096 15.73960076 -15.59486096 15.73960076 -10.3974762 7.06192017 C-10.0341217 6.45453003 -9.67076721 5.84713989 -9.29640198 5.22134399 C-6.35580776 0.34829681 -5.80906321 0.01064402 0 0 Z " fill="#4B5058" transform="translate(345.77247619628906,184.87557983398438)"/>
<path d="M0 0 C2.0063276 0.02426893 4.01273263 0.04276345 6.01916504 0.05574036 C11.2820174 0.1052099 16.54015089 0.23273467 21.80114746 0.37689209 C27.17667798 0.51025953 32.5529769 0.56933123 37.9296875 0.63476562 C48.46560708 0.77388698 58.99803513 0.99553346 69.53125 1.26953125 C68.5927835 2.99342817 67.65389846 4.71709725 66.71484375 6.44067383 C66.19204834 7.40056717 65.66925293 8.36046051 65.13061523 9.34944153 C62.63472101 13.90639632 60.08842254 18.43424702 57.53125 22.95703125 C56.69376221 24.43852661 56.69376221 24.43852661 55.83935547 25.94995117 C51.2618778 34.02459119 46.60247051 42.0495235 41.91308594 50.05957031 C36.91332927 58.60093657 31.96324769 67.17028422 27.03173828 75.7512207 C25.89218378 77.73124877 24.7327977 79.70001986 23.55212402 81.6558075 C22.04942361 84.22566338 20.84922108 86.81917717 19.70248413 89.56506348 C14.64195464 100.85204172 14.64195464 100.85204172 9.44830322 103.21869087 C3.33147522 104.6745241 -2.9028471 104.22062137 -9.1328125 103.9296875 C-11.13623813 103.89793802 -13.13979671 103.87375904 -15.1434021 103.85679626 C-20.39136909 103.79219487 -25.63120246 103.62555647 -30.87597656 103.43682861 C-36.23781254 103.26220281 -41.60097767 103.18513315 -46.96484375 103.09960938 C-57.46970034 102.91784859 -67.96854644 102.62814829 -78.46875 102.26953125 C-77.53566809 100.38333857 -76.60022286 98.49831491 -75.66381836 96.61376953 C-75.14315292 95.56391876 -74.62248749 94.51406799 -74.08604431 93.43240356 C-71.59226817 88.55543376 -68.82384721 83.85475208 -66.03125 79.14453125 C-64.79106764 77.03550839 -63.55150562 74.92612064 -62.3125 72.81640625 C-61.67828125 71.73810547 -61.0440625 70.65980469 -60.390625 69.54882812 C-57.24390813 64.17958257 -54.13731334 58.78736446 -51.03125 53.39453125 C-50.41443359 52.32485107 -49.79761719 51.2551709 -49.16210938 50.15307617 C-46.26170605 45.12217149 -43.36446482 40.0894754 -40.47303772 35.05340576 C-39.47281551 33.31176658 -38.47176808 31.57060435 -37.47045898 29.82958984 C-36.22611907 27.6655068 -34.98330757 25.50054379 -33.74243164 23.33447266 C-32.62124101 21.38557536 -31.47899974 19.44856613 -30.31152344 17.52703857 C-28.40317095 14.31689557 -28.40317095 14.31689557 -27.09312439 10.88027954 C-21.32604025 -1.67411829 -12.60546721 -0.4476953 0 0 Z " fill="#4B5058" transform="translate(180.46875,183.73046875)"/>
<path d="M0 0 C6.9797178 6.33074973 9.91247824 13.28371183 11.54980469 22.44824219 C11.74306587 23.51056313 11.74306587 23.51056313 11.94023132 24.59434509 C12.35922743 26.91042975 12.76593957 29.22846853 13.171875 31.546875 C13.46091864 33.16645572 13.75049826 34.78594087 14.04058838 36.40533447 C14.64433904 39.78669577 15.24207727 43.16904852 15.83544922 46.55224609 C16.5968332 50.89091977 17.37253015 55.22688846 18.15259933 59.56223679 C18.75169482 62.90007151 19.34362041 66.23914628 19.93332672 69.57865143 C20.21668118 71.17864027 20.50218871 72.77824935 20.78987885 74.37746429 C21.18975743 76.60688458 21.58004855 78.83777448 21.96777344 81.06933594 C22.19188904 82.33839783 22.41600464 83.60745972 22.64691162 84.91497803 C23 88 23 88 22 91 C14.60573374 92.54329325 7.20130125 94.02477846 -0.22047329 95.429636 C-3.66738411 96.08406912 -7.10759272 96.75864148 -10.54077148 97.48193359 C-14.49449349 98.31392777 -18.46085465 99.05316372 -22.43359375 99.7890625 C-23.65582138 100.05941315 -24.87804901 100.32976379 -26.13731384 100.60830688 C-29.68732578 101.2230469 -32.43975492 101.57776212 -36 101 C-39.78720324 98.17455795 -42.33721648 94.86988761 -45 91 C-46.20076172 89.56914062 -46.20076172 89.56914062 -47.42578125 88.109375 C-48.04839844 87.33078125 -48.67101562 86.5521875 -49.3125 85.75 C-52.80432874 81.4354891 -56.37580835 77.20294472 -60 73 C-64.32190074 67.98423478 -68.55479675 62.90824112 -72.73046875 57.76953125 C-77.08505794 52.45558334 -81.55078435 47.23473234 -86 42 C-105.23325785 19.37107732 -105.23325785 19.37107732 -111 11 C-106.10263447 9.52770393 -101.22684218 8.39069872 -96.19140625 7.48779297 C-95.07021645 7.28252991 -95.07021645 7.28252991 -93.92637634 7.07312012 C-91.47248598 6.62531026 -89.01762491 6.18317587 -86.5625 5.7421875 C-85.71606934 5.58956577 -84.86963867 5.43694405 -83.99755859 5.27969742 C-79.51360099 4.47149671 -75.02886632 3.66777888 -70.54345703 2.86767578 C-65.95025641 2.04742887 -61.3599991 1.21179982 -56.77024841 0.37249565 C-53.20604875 -0.2762784 -49.6398157 -0.91329411 -46.07296753 -1.54732895 C-44.38201089 -1.84995917 -42.69181066 -2.15685262 -41.00247192 -2.4683876 C-10.70266698 -8.04156829 -10.70266698 -8.04156829 0 0 Z " fill="#F6F4FA" transform="translate(458,18)"/>
<path d="M0 0 C6.29874903 -0.07623218 12.59737851 -0.1286762 18.89648438 -0.16479492 C21.03813117 -0.17985641 23.17974724 -0.20030972 25.32128906 -0.22631836 C28.40437411 -0.26281728 31.48705038 -0.27975302 34.5703125 -0.29296875 C35.52366486 -0.30845261 36.47701721 -0.32393646 37.45925903 -0.33988953 C43.6432599 -0.34144564 48.13537862 0.35758195 52.86328125 4.71875 C53.34152344 5.3065625 53.81976563 5.894375 54.3125 6.5 C55.04919922 7.38171875 55.04919922 7.38171875 55.80078125 8.28125 C58.62392407 12.32744818 58.13436772 16.70573366 58.11352539 21.41870117 C58.11364593 22.29133512 58.11376646 23.16396906 58.11389065 24.06304646 C58.11314384 26.88971308 58.10552614 29.7163139 58.09765625 32.54296875 C58.09618611 34.2873125 58.09516584 36.03165669 58.09460449 37.77600098 C58.08935994 44.24650738 58.07539876 50.71700433 58.0625 57.1875 C58.041875 71.645625 58.02125 86.10375 58 101 C20.05 101 -17.9 101 -57 101 C-55.76540872 97.9135218 -54.68785459 95.26074518 -53.109375 92.41796875 C-52.73723877 91.74636719 -52.36510254 91.07476562 -51.98168945 90.3828125 C-51.37200317 89.29613281 -51.37200317 89.29613281 -50.75 88.1875 C-50.31453857 87.40761719 -49.87907715 86.62773437 -49.43041992 85.82421875 C-44.62754585 77.26646158 -39.66206012 68.80382282 -34.703125 60.3359375 C-29.0714421 50.71440094 -23.51713276 41.04817873 -17.95263672 31.38769531 C-15.88857242 27.80668054 -13.8216295 24.22734013 -11.75390625 20.6484375 C-10.71407145 18.84814134 -9.67427733 17.04782169 -8.63449097 15.24749756 C-7.64282016 13.53084792 -6.65063837 11.8144935 -5.65844727 10.09814453 C-5.06217529 9.06544434 -4.46590332 8.03274414 -3.8515625 6.96875 C-3.32385254 6.05544922 -2.79614258 5.14214844 -2.25244141 4.20117188 C-1.46663489 2.82011309 -0.71060752 1.42121505 0 0 Z " fill="#F6F4FA" transform="translate(429,185)"/>
<path d="M0 0 C1.20779268 0.60558982 2.40657611 1.229355 3.59765625 1.8671875 C4.27602539 2.21845703 4.95439453 2.56972656 5.65332031 2.93164062 C13.94343597 7.29872236 21.9917454 12.10640338 30.0546875 16.875 C34.70722716 19.61842569 39.3931692 22.29040351 44.109375 24.921875 C45.36890347 25.62809763 46.62834399 26.33447714 47.88769531 27.04101562 C49.71711166 28.06718912 51.54796713 29.08987222 53.3861084 30.1003418 C72.69281823 40.71963972 72.69281823 40.71963972 75.66015625 49.7421875 C76.61740691 54.78616215 76.04817029 58.76603038 73.30078125 63.125 C69.48326688 68.57281757 64.68250009 71.26404361 58.91015625 74.3671875 C56.75508317 75.57399526 54.60013979 76.78103467 52.4453125 77.98828125 C51.33043457 78.60300293 50.21555664 79.21772461 49.06689453 79.85107422 C43.45044384 82.96882018 37.90419666 86.20681181 32.34765625 89.4296875 C30.18261959 90.67635092 28.01726043 91.92245444 25.8515625 93.16796875 C21.87027062 95.46127696 17.89885767 97.77009058 13.9375 100.09765625 C13.06198486 100.61046143 12.18646973 101.1232666 11.28442383 101.65161133 C9.66856025 102.59915739 8.05494923 103.55055992 6.4440918 104.5065918 C5.73422119 104.92207275 5.02435059 105.33755371 4.29296875 105.765625 C3.68340332 106.12575684 3.07383789 106.48588867 2.44580078 106.85693359 C-1.83379812 108.97859419 -6.64786578 109.61473077 -11.33984375 108.7421875 C-16.53082754 106.23909176 -21.04555491 103.1911235 -23.33984375 97.7421875 C-24.6170638 93.88978166 -24.50207084 89.9931929 -24.5168457 85.97949219 C-24.5234169 85.20171921 -24.5299881 84.42394623 -24.53675842 83.62260437 C-24.55644031 81.05308935 -24.56814286 78.48363264 -24.578125 75.9140625 C-24.58220053 75.03407845 -24.58627605 74.15409439 -24.59047508 73.24744415 C-24.61131447 68.58928158 -24.62562516 63.93114828 -24.63500977 59.27294922 C-24.64606722 54.4735085 -24.68046548 49.67453228 -24.72018147 44.87525558 C-24.74638517 41.17422654 -24.75470494 37.47330755 -24.75829124 33.77219391 C-24.76314782 32.00364293 -24.77473523 30.23509656 -24.79332924 28.46663666 C-24.81780042 25.98487506 -24.81674151 23.50430742 -24.80981445 21.02246094 C-24.82262451 20.3000975 -24.83543457 19.57773407 -24.84863281 18.83348083 C-24.78676604 12.71468249 -22.87847605 7.31357635 -18.5234375 2.90234375 C-17.94722656 2.54011719 -17.37101563 2.17789062 -16.77734375 1.8046875 C-15.90916016 1.23427734 -15.90916016 1.23427734 -15.0234375 0.65234375 C-10.01520565 -2.05512265 -5.25312133 -1.9783685 0 0 Z " fill="#F26868" transform="translate(241.33984375,337.2578125)"/>
<path d="M0 0 C2.24367789 2.24367789 2.86749511 3.87214743 3.99609375 6.8203125 C4.38490723 7.82006104 4.7737207 8.81980957 5.17431641 9.84985352 C5.79959229 11.47105103 5.79959229 11.47105103 6.4375 13.125 C11.47995976 25.99426695 17.15082196 38.47675983 23 51 C41.315 51.495 41.315 51.495 60 52 C60 52.33 60 52.66 60 53 C40.2 53 20.4 53 0 53 C0 35.51 0 18.02 0 0 Z " fill="#E3E2E7" transform="translate(42,233)"/>
</svg>
